<svg data-v-423bf9ae="" xmlns="http://www.w3.org/2000/svg" viewBox="0 0 559.2346861073497 163" class="iconAbove"><!----><!----><!----><g data-v-423bf9ae="" id="cd50ed9f-8616-4543-b56f-90e1355868ab" fill="#ffffff" transform="matrix(5.102040767669678,0,0,5.102040767669678,-4.2857208251953125,93)"><path d="M9.39 3.67L9.65 2.80L10.04 2.80L10.16 6.02L9.65 6.02L9.65 6.02Q9.34 4.79 8.46 4.09L8.46 4.09L8.46 4.09Q7.57 3.39 6.33 3.39L6.33 3.39L6.33 3.39Q5.47 3.39 4.80 3.72L4.80 3.72L4.80 3.72Q4.13 4.06 3.67 4.69L3.67 4.69L3.67 4.69Q3.21 5.32 2.96 6.23L2.96 6.23L2.96 6.23Q2.72 7.14 2.72 8.29L2.72 8.29L2.72 8.29Q2.72 10.54 3.65 11.75L3.65 11.75L3.65 11.75Q4.59 12.96 6.37 12.96L6.37 12.96L6.37 12.96Q9.07 12.96 9.84 10.09L9.84 10.09L10.42 10.09L10.42 13.58L9.93 13.58L9.60 12.47L9.60 12.47Q8.13 13.72 6.05 13.72L6.05 13.72L6.05 13.72Q4.86 13.72 3.90 13.34L3.90 13.34L3.90 13.34Q2.94 12.96 2.26 12.27L2.26 12.27L2.26 12.27Q1.58 11.58 1.21 10.58L1.21 10.58L1.21 10.58Q0.84 9.59 0.84 8.37L0.84 8.37L0.84 8.37Q0.84 7.10 1.23 6.05L1.23 6.05L1.23 6.05Q1.62 5.00 2.33 4.24L2.33 4.24L2.33 4.24Q3.04 3.49 4.03 3.07L4.03 3.07L4.03 3.07Q5.01 2.66 6.20 2.66L6.20 2.66L6.20 2.66Q7.04 2.66 7.78 2.90L7.78 2.90L7.78 2.90Q8.53 3.14 9.39 3.67L9.39 3.67ZM16.11 10.54L16.11 9.44L16.11 9.44Q15.32 9.74 14.76 10.04L14.76 10.04L14.76 10.04Q14.21 10.33 13.87 10.63L13.87 10.63L13.87 10.63Q13.54 10.92 13.39 11.21L13.39 11.21L13.39 11.21Q13.24 11.51 13.24 11.82L13.24 11.82L13.24 11.82Q13.24 12.28 13.55 12.57L13.55 12.57L13.55 12.57Q13.86 12.87 14.36 12.87L14.36 12.87L14.36 12.87Q14.73 12.87 15.04 12.68L15.04 12.68L15.04 12.68Q15.36 12.50 15.60 12.19L15.60 12.19L15.60 12.19Q15.83 11.87 15.97 11.45L15.97 11.45L15.97 11.45Q16.11 11.02 16.11 10.54L16.11 10.54ZM14.10 9.72L16.11 8.83L16.11 8.26L16.11 8.26Q16.11 6.55 14.66 6.55L14.66 6.55L14.66 6.55Q14.42 6.55 14.25 6.59L14.25 6.59L14.25 6.59Q14.08 6.64 13.97 6.73L13.97 6.73L13.97 6.73Q13.86 6.83 13.77 7.01L13.77 7.01L13.77 7.01Q13.68 7.20 13.59 7.46L13.59 7.46L13.59 7.46Q13.44 7.87 13.29 8.00L13.29 8.00L13.29 8.00Q13.15 8.13 12.87 8.13L12.87 8.13L12.87 8.13Q12.17 8.13 12.17 7.43L12.17 7.43L12.17 7.43Q12.17 6.76 12.88 6.39L12.88 6.39L12.88 6.39Q13.59 6.02 14.91 6.02L14.91 6.02L14.91 6.02Q16.31 6.02 16.90 6.52L16.90 6.52L16.90 6.52Q17.49 7.01 17.49 8.20L17.49 8.20L17.49 11.34L17.49 11.34Q17.49 12.94 18.12 12.94L18.12 12.94L18.12 12.94Q18.31 12.94 18.49 12.89L18.49 12.89L18.49 12.89Q18.68 12.84 18.80 12.63L18.80 12.63L19.00 12.96L19.00 12.96Q18.83 13.29 18.38 13.50L18.38 13.50L18.38 13.50Q17.93 13.72 17.44 13.72L17.44 13.72L17.44 13.72Q16.83 13.72 16.53 13.33L16.53 13.33L16.53 13.33Q16.23 12.94 16.23 12.22L16.23 12.22L16.16 12.22L16.16 12.22Q15.79 12.91 15.15 13.31L15.15 13.31L15.15 13.31Q14.50 13.71 13.72 13.71L13.72 13.71L13.72 13.71Q12.84 13.71 12.33 13.26L12.33 13.26L12.33 13.26Q11.83 12.81 11.83 12.05L11.83 12.05L11.83 12.05Q11.83 11.72 11.95 11.41L11.95 11.41L11.95 11.41Q12.07 11.10 12.33 10.82L12.33 10.82L12.33 10.82Q12.60 10.54 13.03 10.27L13.03 10.27L13.03 10.27Q13.47 10.00 14.10 9.72L14.10 9.72ZM19.29 7.04L19.29 6.38L20.87 6.38L20.87 5.38L20.87 5.38Q20.87 3.77 21.72 2.86L21.72 2.86L21.72 2.86Q22.57 1.96 24.14 1.96L24.14 1.96L24.14 1.96Q25.00 1.96 25.55 2.23L25.55 2.23L25.55 2.23Q26.10 2.49 26.10 2.91L26.10 2.91L26.10 2.91Q26.10 3.19 25.92 3.38L25.92 3.38L25.92 3.38Q25.75 3.57 25.48 3.57L25.48 3.57L25.48 3.57Q25.31 3.57 25.12 3.46L25.12 3.46L25.12 3.46Q24.93 3.36 24.63 3.11L24.63 3.11L24.63 3.11Q24.28 2.81 24.08 2.72L24.08 2.72L24.08 2.72Q23.88 2.63 23.62 2.63L23.62 2.63L23.62 2.63Q22.78 2.63 22.41 3.49L22.41 3.49L22.41 3.49Q22.29 3.77 22.24 4.17L22.24 4.17L22.24 4.17Q22.19 4.58 22.19 5.29L22.19 5.29L22.19 6.38L24.44 6.38L24.44 7.04L22.19 7.04L22.19 11.33L22.19 11.33Q22.19 11.84 22.25 12.18L22.25 12.18L22.25 12.18Q22.32 12.52 22.48 12.72L22.48 12.72L22.48 12.72Q22.64 12.92 22.92 13.00L22.92 13.00L22.92 13.00Q23.20 13.08 23.65 13.09L23.65 13.09L23.65 13.58L19.67 13.58L19.67 13.09L19.67 13.09Q20.06 13.08 20.30 13.01L20.30 13.01L20.30 13.01Q20.54 12.95 20.66 12.78L20.66 12.78L20.66 12.78Q20.79 12.60 20.83 12.29L20.83 12.29L20.83 12.29Q20.87 11.97 20.87 11.44L20.87 11.44L20.87 7.04L19.29 7.04ZM25.06 7.04L25.06 6.38L26.64 6.38L26.64 5.38L26.64 5.38Q26.64 3.77 27.49 2.86L27.49 2.86L27.49 2.86Q28.34 1.96 29.90 1.96L29.90 1.96L29.90 1.96Q30.77 1.96 31.32 2.23L31.32 2.23L31.32 2.23Q31.86 2.49 31.86 2.91L31.86 2.91L31.86 2.91Q31.86 3.19 31.69 3.38L31.69 3.38L31.69 3.38Q31.51 3.57 31.25 3.57L31.25 3.57L31.25 3.57Q31.08 3.57 30.89 3.46L30.89 3.46L30.89 3.46Q30.70 3.36 30.39 3.11L30.39 3.11L30.39 3.11Q30.04 2.81 29.85 2.72L29.85 2.72L29.85 2.72Q29.65 2.63 29.39 2.63L29.39 2.63L29.39 2.63Q28.55 2.63 28.18 3.49L28.18 3.49L28.18 3.49Q28.06 3.77 28.01 4.17L28.01 4.17L28.01 4.17Q27.96 4.58 27.96 5.29L27.96 5.29L27.96 6.38L30.21 6.38L30.21 7.04L27.96 7.04L27.96 11.33L27.96 11.33Q27.96 11.84 28.02 12.18L28.02 12.18L28.02 12.18Q28.08 12.52 28.25 12.72L28.25 12.72L28.25 12.72Q28.41 12.92 28.69 13.00L28.69 13.00L28.69 13.00Q28.97 13.08 29.41 13.09L29.41 13.09L29.41 13.58L25.44 13.58L25.44 13.09L25.44 13.09Q25.83 13.08 26.07 13.01L26.07 13.01L26.07 13.01Q26.31 12.95 26.43 12.78L26.43 12.78L26.43 12.78Q26.56 12.60 26.60 12.29L26.60 12.29L26.60 12.29Q26.64 11.97 26.64 11.44L26.64 11.44L26.64 7.04L25.06 7.04ZM37.24 11.89L37.67 12.28L37.67 12.28Q36.48 13.72 34.72 13.72L34.72 13.72L34.72 13.72Q33.89 13.72 33.22 13.45L33.22 13.45L33.22 13.45Q32.55 13.17 32.07 12.68L32.07 12.68L32.07 12.68Q31.58 12.18 31.32 11.49L31.32 11.49L31.32 11.49Q31.05 10.79 31.05 9.95L31.05 9.95L31.05 9.95Q31.05 9.10 31.33 8.37L31.33 8.37L31.33 8.37Q31.61 7.64 32.12 7.13L32.12 7.13L32.12 7.13Q32.63 6.61 33.34 6.31L33.34 6.31L33.34 6.31Q34.05 6.02 34.89 6.02L34.89 6.02L34.89 6.02Q36.25 6.02 36.99 6.75L36.99 6.75L36.99 6.75Q37.73 7.49 37.73 8.86L37.73 8.86L37.73 8.86Q37.73 9.06 37.65 9.10L37.65 9.10L37.65 9.10Q37.58 9.14 37.30 9.14L37.30 9.14L32.69 9.14L32.69 9.14Q32.66 9.25 32.65 9.41L32.65 9.41L32.65 9.41Q32.63 9.58 32.63 9.77L32.63 9.77L32.63 9.77Q32.63 10.50 32.81 11.10L32.81 11.10L32.81 11.10Q32.98 11.69 33.31 12.11L33.31 12.11L33.31 12.11Q33.64 12.53 34.10 12.76L34.10 12.76L34.10 12.76Q34.55 12.99 35.11 12.99L35.11 12.99L35.11 12.99Q35.70 12.99 36.20 12.73L36.20 12.73L36.20 12.73Q36.71 12.47 37.24 11.89L37.24 11.89ZM32.79 8.50L35.36 8.50L35.36 8.50Q35.64 8.50 35.81 8.48L35.81 8.48L35.81 8.48Q35.98 8.47 36.06 8.43L36.06 8.43L36.06 8.43Q36.15 8.39 36.18 8.31L36.18 8.31L36.18 8.31Q36.20 8.23 36.20 8.11L36.20 8.11L36.20 8.11Q36.20 7.46 35.79 7.08L35.79 7.08L35.79 7.08Q35.38 6.69 34.66 6.69L34.66 6.69L34.66 6.69Q33.15 6.69 32.79 8.50L32.79 8.50ZM41.58 6.02L41.58 11.35L41.58 11.35Q41.58 11.90 41.63 12.23L41.63 12.23L41.63 12.23Q41.68 12.56 41.82 12.75L41.82 12.75L41.82 12.75Q41.96 12.94 42.21 13.01L42.21 13.01L42.21 13.01Q42.46 13.08 42.88 13.09L42.88 13.09L42.88 13.58L38.86 13.58L38.86 13.09L38.86 13.09Q39.28 13.08 39.55 13.00L39.55 13.00L39.55 13.00Q39.82 12.92 39.96 12.75L39.96 12.75L39.96 12.75Q40.11 12.57 40.16 12.26L40.16 12.26L40.16 12.26Q40.21 11.94 40.21 11.45L40.21 11.45L40.21 9.66L40.21 9.66Q40.21 8.85 40.19 8.32L40.19 8.32L40.19 8.32Q40.17 7.80 40.11 7.60L40.11 7.60L40.11 7.60Q40.04 7.28 39.79 7.16L39.79 7.16L39.79 7.16Q39.54 7.04 38.84 7.04L38.84 7.04L38.84 6.55L41.58 6.02ZM39.97 3.18L39.97 3.18L39.97 3.18Q39.97 2.81 40.22 2.56L40.22 2.56L40.22 2.56Q40.47 2.31 40.84 2.31L40.84 2.31L40.84 2.31Q41.20 2.31 41.45 2.56L41.45 2.56L41.45 2.56Q41.71 2.81 41.71 3.18L41.71 3.18L41.71 3.18Q41.71 3.54 41.45 3.79L41.45 3.79L41.45 3.79Q41.20 4.05 40.84 4.05L40.84 4.05L40.84 4.05Q40.47 4.05 40.22 3.79L40.22 3.79L40.22 3.79Q39.97 3.54 39.97 3.18ZM46.19 9.51L46.19 11.38L46.19 11.38Q46.19 11.96 46.21 12.29L46.21 12.29L46.21 12.29Q46.24 12.61 46.36 12.79L46.36 12.79L46.36 12.79Q46.48 12.96 46.71 13.02L46.71 13.02L46.71 13.02Q46.94 13.08 47.35 13.10L47.35 13.10L47.35 13.58L43.68 13.58L43.68 13.10L43.68 13.10Q44.07 13.08 44.30 13.02L44.30 13.02L44.30 13.02Q44.53 12.96 44.66 12.80L44.66 12.80L44.66 12.80Q44.79 12.63 44.82 12.32L44.82 12.32L44.82 12.32Q44.86 12.01 44.86 11.48L44.86 11.48L44.86 9.62L44.86 9.62Q44.86 7.95 44.77 7.59L44.77 7.59L44.77 7.59Q44.73 7.41 44.67 7.29L44.67 7.29L44.67 7.29Q44.60 7.17 44.48 7.10L44.48 7.10L44.48 7.10Q44.35 7.04 44.16 7.02L44.16 7.02L44.16 7.02Q43.96 7 43.65 7L43.65 7L43.65 6.55L45.89 6.02L46.06 7.41L46.12 7.41L46.12 7.41Q46.65 6.75 47.36 6.38L47.36 6.38L47.36 6.38Q48.08 6.02 48.92 6.02L48.92 6.02L48.92 6.02Q49.56 6.02 50.09 6.23L50.09 6.23L50.09 6.23Q50.62 6.44 50.90 6.80L50.90 6.80L50.90 6.80Q51.14 7.13 51.24 7.64L51.24 7.64L51.24 7.64Q51.34 8.15 51.34 9.04L51.34 9.04L51.34 11.38L51.34 11.38Q51.34 11.96 51.37 12.29L51.37 12.29L51.37 12.29Q51.41 12.61 51.52 12.79L51.52 12.79L51.52 12.79Q51.63 12.96 51.86 13.02L51.86 13.02L51.86 13.02Q52.09 13.08 52.47 13.10L52.47 13.10L52.47 13.58L48.85 13.58L48.85 13.10L48.85 13.10Q49.24 13.09 49.47 13.03L49.47 13.03L49.47 13.03Q49.70 12.96 49.82 12.80L49.82 12.80L49.82 12.80Q49.94 12.63 49.97 12.31L49.97 12.31L49.97 12.31Q50.01 12.00 50.01 11.48L50.01 11.48L50.01 9.63L50.01 9.63Q50.01 8.83 49.92 8.29L49.92 8.29L49.92 8.29Q49.84 7.74 49.65 7.41L49.65 7.41L49.65 7.41Q49.46 7.07 49.15 6.92L49.15 6.92L49.15 6.92Q48.85 6.78 48.41 6.78L48.41 6.78L48.41 6.78Q47.78 6.78 47.26 7.10L47.26 7.10L47.26 7.10Q46.73 7.43 46.44 8.01L46.44 8.01L46.44 8.01Q46.37 8.15 46.32 8.27L46.32 8.27L46.32 8.27Q46.27 8.40 46.24 8.57L46.24 8.57L46.24 8.57Q46.21 8.74 46.20 8.95L46.20 8.95L46.20 8.95Q46.19 9.17 46.19 9.51L46.19 9.51ZM59.68 11.89L60.12 12.28L60.12 12.28Q58.93 13.72 57.16 13.72L57.16 13.72L57.16 13.72Q56.34 13.72 55.66 13.45L55.66 13.45L55.66 13.45Q54.99 13.17 54.51 12.68L54.51 12.68L54.51 12.68Q54.03 12.18 53.76 11.49L53.76 11.49L53.76 11.49Q53.49 10.79 53.49 9.95L53.49 9.95L53.49 9.95Q53.49 9.10 53.77 8.37L53.77 8.37L53.77 8.37Q54.05 7.64 54.57 7.13L54.57 7.13L54.57 7.13Q55.08 6.61 55.78 6.31L55.78 6.31L55.78 6.31Q56.49 6.02 57.33 6.02L57.33 6.02L57.33 6.02Q58.69 6.02 59.43 6.75L59.43 6.75L59.43 6.75Q60.17 7.49 60.17 8.86L60.17 8.86L60.17 8.86Q60.17 9.06 60.10 9.10L60.10 9.10L60.10 9.10Q60.02 9.14 59.74 9.14L59.74 9.14L55.13 9.14L55.13 9.14Q55.10 9.25 55.09 9.41L55.09 9.41L55.09 9.41Q55.08 9.58 55.08 9.77L55.08 9.77L55.08 9.77Q55.08 10.50 55.25 11.10L55.25 11.10L55.25 11.10Q55.43 11.69 55.76 12.11L55.76 12.11L55.76 12.11Q56.08 12.53 56.54 12.76L56.54 12.76L56.54 12.76Q56.99 12.99 57.55 12.99L57.55 12.99L57.55 12.99Q58.14 12.99 58.65 12.73L58.65 12.73L58.65 12.73Q59.15 12.47 59.68 11.89L59.68 11.89ZM55.23 8.50L57.81 8.50L57.81 8.50Q58.09 8.50 58.25 8.48L58.25 8.48L58.25 8.48Q58.42 8.47 58.51 8.43L58.51 8.43L58.51 8.43Q58.59 8.39 58.62 8.31L58.62 8.31L58.62 8.31Q58.65 8.23 58.65 8.11L58.65 8.11L58.65 8.11Q58.65 7.46 58.23 7.08L58.23 7.08L58.23 7.08Q57.82 6.69 57.11 6.69L57.11 6.69L57.11 6.69Q55.59 6.69 55.23 8.50L55.23 8.50ZM71.47 2.66L71.47 2.66L71.47 2.66Q72.70 2.66 73.77 3.09L73.77 3.09L73.77 3.09Q74.83 3.53 75.61 4.28L75.61 4.28L75.61 4.28Q76.40 5.04 76.85 6.06L76.85 6.06L76.85 6.06Q77.29 7.08 77.29 8.27L77.29 8.27L77.29 8.27Q77.29 9.41 76.84 10.40L76.84 10.40L76.84 10.40Q76.38 11.40 75.60 12.13L75.60 12.13L75.60 12.13Q74.82 12.87 73.75 13.29L73.75 13.29L73.75 13.29Q72.69 13.72 71.47 13.72L71.47 13.72L71.47 13.72Q70.25 13.72 69.19 13.29L69.19 13.29L69.19 13.29Q68.12 12.87 67.34 12.13L67.34 12.13L67.34 12.13Q66.56 11.40 66.10 10.40L66.10 10.40L66.10 10.40Q65.65 9.41 65.65 8.27L65.65 8.27L65.65 8.27Q65.65 7.08 66.09 6.06L66.09 6.06L66.09 6.06Q66.54 5.04 67.33 4.28L67.33 4.28L67.33 4.28Q68.11 3.53 69.17 3.09L69.17 3.09L69.17 3.09Q70.24 2.66 71.47 2.66ZM71.47 12.95L71.47 12.95L71.47 12.95Q72.39 12.95 73.13 12.63L73.13 12.63L73.13 12.63Q73.86 12.31 74.39 11.70L74.39 11.70L74.39 11.70Q74.91 11.10 75.19 10.24L75.19 10.24L75.19 10.24Q75.47 9.38 75.47 8.32L75.47 8.32L75.47 8.32Q75.47 7.20 75.19 6.29L75.19 6.29L75.19 6.29Q74.91 5.39 74.40 4.75L74.40 4.75L74.40 4.75Q73.88 4.12 73.14 3.77L73.14 3.77L73.14 3.77Q72.39 3.43 71.47 3.43L71.47 3.43L71.47 3.43Q70.55 3.43 69.80 3.77L69.80 3.77L69.80 3.77Q69.06 4.12 68.54 4.75L68.54 4.75L68.54 4.75Q68.03 5.39 67.75 6.29L67.75 6.29L67.75 6.29Q67.47 7.20 67.47 8.32L67.47 8.32L67.47 8.32Q67.47 9.38 67.75 10.24L67.75 10.24L67.75 10.24Q68.03 11.10 68.54 11.70L68.54 11.70L68.54 11.70Q69.06 12.31 69.80 12.63L69.80 12.63L69.80 12.63Q70.55 12.95 71.47 12.95ZM81.19 9.56L81.19 11.34L81.19 11.34Q81.19 11.93 81.21 12.26L81.21 12.26L81.21 12.26Q81.24 12.60 81.36 12.78L81.36 12.78L81.36 12.78Q81.48 12.95 81.70 13.01L81.70 13.01L81.70 13.01Q81.93 13.06 82.33 13.09L82.33 13.09L82.33 13.58L78.61 13.58L78.61 13.09L78.61 13.09Q79.02 13.06 79.25 13.01L79.25 13.01L79.25 13.01Q79.49 12.95 79.62 12.78L79.62 12.78L79.62 12.78Q79.74 12.61 79.78 12.30L79.78 12.30L79.78 12.30Q79.81 11.98 79.81 11.45L79.81 11.45L79.81 9.66L79.81 9.66Q79.81 8.86 79.79 8.33L79.79 8.33L79.79 8.33Q79.77 7.80 79.72 7.60L79.72 7.60L79.72 7.60Q79.67 7.42 79.62 7.31L79.62 7.31L79.62 7.31Q79.56 7.21 79.44 7.15L79.44 7.15L79.44 7.15Q79.31 7.08 79.11 7.06L79.11 7.06L79.11 7.06Q78.90 7.04 78.58 7.04L78.58 7.04L78.58 6.55L80.86 6.02L81.05 7.42L81.12 7.42L81.12 7.42Q81.75 6.71 82.44 6.36L82.44 6.36L82.44 6.36Q83.13 6.02 83.97 6.02L83.97 6.02L83.97 6.02Q84.85 6.02 85.46 6.38L85.46 6.38L85.46 6.38Q86.06 6.73 86.30 7.41L86.30 7.41L86.35 7.41L86.35 7.41Q86.87 6.75 87.61 6.38L87.61 6.38L87.61 6.38Q88.35 6.02 89.19 6.02L89.19 6.02L89.19 6.02Q89.85 6.02 90.39 6.24L90.39 6.24L90.39 6.24Q90.93 6.45 91.21 6.83L91.21 6.83L91.21 6.83Q91.46 7.15 91.57 7.68L91.57 7.68L91.57 7.68Q91.67 8.20 91.67 9.11L91.67 9.11L91.67 11.34L91.67 11.34Q91.67 11.91 91.71 12.25L91.71 12.25L91.71 12.25Q91.74 12.59 91.85 12.77L91.85 12.77L91.85 12.77Q91.97 12.95 92.20 13.01L92.20 13.01L92.20 13.01Q92.43 13.06 92.83 13.09L92.83 13.09L92.83 13.58L89.11 13.58L89.11 13.09L89.11 13.09Q89.50 13.08 89.74 13.01L89.74 13.01L89.74 13.01Q89.98 12.95 90.10 12.78L90.10 12.78L90.10 12.78Q90.23 12.60 90.27 12.29L90.27 12.29L90.27 12.29Q90.30 11.98 90.30 11.45L90.30 11.45L90.30 9.69L90.30 9.69Q90.30 8.89 90.22 8.34L90.22 8.34L90.22 8.34Q90.13 7.78 89.94 7.44L89.94 7.44L89.94 7.44Q89.74 7.10 89.42 6.94L89.42 6.94L89.42 6.94Q89.11 6.79 88.66 6.79L88.66 6.79L88.66 6.79Q88.05 6.79 87.51 7.13L87.51 7.13L87.51 7.13Q86.97 7.48 86.66 8.05L86.66 8.05L86.66 8.05Q86.59 8.19 86.54 8.32L86.54 8.32L86.54 8.32Q86.49 8.46 86.46 8.62L86.46 8.62L86.46 8.62Q86.44 8.78 86.43 9.00L86.43 9.00L86.43 9.00Q86.42 9.23 86.42 9.56L86.42 9.56L86.42 11.34L86.42 11.34Q86.42 11.91 86.45 12.25L86.45 12.25L86.45 12.25Q86.48 12.59 86.60 12.77L86.60 12.77L86.60 12.77Q86.72 12.95 86.95 13.01L86.95 13.01L86.95 13.01Q87.19 13.06 87.60 13.09L87.60 13.09L87.60 13.58L83.87 13.58L83.87 13.09L83.87 13.09Q84.27 13.06 84.50 13.01L84.50 13.01L84.50 13.01Q84.74 12.95 84.86 12.78L84.86 12.78L84.86 12.78Q84.98 12.61 85.02 12.30L85.02 12.30L85.02 12.30Q85.05 11.98 85.05 11.45L85.05 11.45L85.05 9.69L85.05 9.69Q85.05 8.88 84.97 8.32L84.97 8.32L84.97 8.32Q84.88 7.77 84.69 7.43L84.69 7.43L84.69 7.43Q84.50 7.08 84.20 6.94L84.20 6.94L84.20 6.94Q83.89 6.79 83.44 6.79L83.44 6.79L83.44 6.79Q82.81 6.79 82.26 7.13L82.26 7.13L82.26 7.13Q81.70 7.48 81.42 8.05L81.42 8.05L81.42 8.05Q81.35 8.19 81.30 8.32L81.30 8.32L81.30 8.32Q81.26 8.46 81.23 8.62L81.23 8.62L81.23 8.62Q81.20 8.78 81.19 9.00L81.19 9.00L81.19 9.00Q81.19 9.23 81.19 9.56L81.19 9.56ZM99.99 11.89L100.42 12.28L100.42 12.28Q99.23 13.72 97.47 13.72L97.47 13.72L97.47 13.72Q96.64 13.72 95.97 13.45L95.97 13.45L95.97 13.45Q95.30 13.17 94.81 12.68L94.81 12.68L94.81 12.68Q94.33 12.18 94.07 11.49L94.07 11.49L94.07 11.49Q93.80 10.79 93.80 9.95L93.80 9.95L93.80 9.95Q93.80 9.10 94.08 8.37L94.08 8.37L94.08 8.37Q94.36 7.64 94.87 7.13L94.87 7.13L94.87 7.13Q95.38 6.61 96.09 6.31L96.09 6.31L96.09 6.31Q96.80 6.02 97.64 6.02L97.64 6.02L97.64 6.02Q98.99 6.02 99.74 6.75L99.74 6.75L99.74 6.75Q100.48 7.49 100.48 8.86L100.48 8.86L100.48 8.86Q100.48 9.06 100.40 9.10L100.40 9.10L100.40 9.10Q100.32 9.14 100.04 9.14L100.04 9.14L95.44 9.14L95.44 9.14Q95.41 9.25 95.40 9.41L95.40 9.41L95.40 9.41Q95.38 9.58 95.38 9.77L95.38 9.77L95.38 9.77Q95.38 10.50 95.56 11.10L95.56 11.10L95.56 11.10Q95.73 11.69 96.06 12.11L96.06 12.11L96.06 12.11Q96.39 12.53 96.84 12.76L96.84 12.76L96.84 12.76Q97.30 12.99 97.86 12.99L97.86 12.99L97.86 12.99Q98.45 12.99 98.95 12.73L98.95 12.73L98.95 12.73Q99.46 12.47 99.99 11.89L99.99 11.89ZM95.54 8.50L98.11 8.50L98.11 8.50Q98.39 8.50 98.56 8.48L98.56 8.48L98.56 8.48Q98.73 8.47 98.81 8.43L98.81 8.43L98.81 8.43Q98.90 8.39 98.92 8.31L98.92 8.31L98.92 8.31Q98.95 8.23 98.95 8.11L98.95 8.11L98.95 8.11Q98.95 7.46 98.54 7.08L98.54 7.08L98.54 7.08Q98.13 6.69 97.41 6.69L97.41 6.69L97.41 6.69Q95.90 6.69 95.54 8.50L95.54 8.50ZM104.16 9.51L104.16 11.38L104.16 11.38Q104.16 11.96 104.19 12.29L104.19 12.29L104.19 12.29Q104.22 12.61 104.34 12.79L104.34 12.79L104.34 12.79Q104.45 12.96 104.69 13.02L104.69 13.02L104.69 13.02Q104.92 13.08 105.32 13.10L105.32 13.10L105.32 13.58L101.65 13.58L101.65 13.10L101.65 13.10Q102.05 13.08 102.28 13.02L102.28 13.02L102.28 13.02Q102.51 12.96 102.63 12.80L102.63 12.80L102.63 12.80Q102.76 12.63 102.80 12.32L102.80 12.32L102.80 12.32Q102.83 12.01 102.83 11.48L102.83 11.48L102.83 9.62L102.83 9.62Q102.83 7.95 102.75 7.59L102.75 7.59L102.75 7.59Q102.70 7.41 102.64 7.29L102.64 7.29L102.64 7.29Q102.58 7.17 102.45 7.10L102.45 7.10L102.45 7.10Q102.33 7.04 102.13 7.02L102.13 7.02L102.13 7.02Q101.93 7 101.63 7L101.63 7L101.63 6.55L103.87 6.02L104.03 7.41L104.09 7.41L104.09 7.41Q104.62 6.75 105.34 6.38L105.34 6.38L105.34 6.38Q106.05 6.02 106.89 6.02L106.89 6.02L106.89 6.02Q107.53 6.02 108.07 6.23L108.07 6.23L108.07 6.23Q108.60 6.44 108.88 6.80L108.88 6.80L108.88 6.80Q109.12 7.13 109.21 7.64L109.21 7.64L109.21 7.64Q109.31 8.15 109.31 9.04L109.31 9.04L109.31 11.38L109.31 11.38Q109.31 11.96 109.35 12.29L109.35 12.29L109.35 12.29Q109.38 12.61 109.49 12.79L109.49 12.79L109.49 12.79Q109.61 12.96 109.84 13.02L109.84 13.02L109.84 13.02Q110.07 13.08 110.45 13.10L110.45 13.10L110.45 13.58L106.82 13.58L106.82 13.10L106.82 13.10Q107.21 13.09 107.44 13.03L107.44 13.03L107.44 13.03Q107.67 12.96 107.79 12.80L107.79 12.80L107.79 12.80Q107.91 12.63 107.95 12.31L107.95 12.31L107.95 12.31Q107.98 12.00 107.98 11.48L107.98 11.48L107.98 9.63L107.98 9.63Q107.98 8.83 107.90 8.29L107.90 8.29L107.90 8.29Q107.81 7.74 107.63 7.41L107.63 7.41L107.63 7.41Q107.44 7.07 107.13 6.92L107.13 6.92L107.13 6.92Q106.82 6.78 106.39 6.78L106.39 6.78L106.39 6.78Q105.76 6.78 105.23 7.10L105.23 7.10L105.23 7.10Q104.71 7.43 104.41 8.01L104.41 8.01L104.41 8.01Q104.34 8.15 104.29 8.27L104.29 8.27L104.29 8.27Q104.24 8.40 104.22 8.57L104.22 8.57L104.22 8.57Q104.19 8.74 104.17 8.95L104.17 8.95L104.17 8.95Q104.16 9.17 104.16 9.51L104.16 9.51Z"></path></g><!----><g data-v-423bf9ae="" id="23536412-35e4-41b4-b970-5183a8d15df2" transform="matrix(1.0725265741348267,0,0,1.0725265741348267,225.77894592285156,-8.608278274536133)" stroke="none" fill="#D1793F"><path d="M79.852 27.062C74.812 15.824 60.361 8.387 43.9 8.387 22.902 8.387 6 20.555 6 36.09v28.506c0 15.535 16.902 27.705 37.9 27.705 23.734 0 32.903-14.072 35.603-19.969 7.334-2.541 15.606-10.09 15.606-31.098 0-6.025-3.951-13.156-15.257-14.172zM77.176 67.82a2.543 2.543 0 0 0-1.67 1.498C73.822 73.52 66.104 87.23 43.865 87.23 25.711 87.23 11 77.287 11 64.596V36.09c0-12.691 14.711-22.633 32.865-22.633 14.854 0 27.997 6.949 31.608 16.9.355.973 1.388 1.633 2.421 1.67 7.598.264 12.197 3.707 12.197 9.207.001 15.016-4.425 24.207-12.915 26.586z"></path><path d="M44.371 20.951c-9.408 0-19.531 2.727-19.531 8.713 0 5.988 10.123 8.715 19.531 8.715s19.531-2.727 19.531-8.715c0-5.986-10.123-8.713-19.531-8.713zM82.439 44.949c0-3.295-2.82-5.336-5.434-5.336-.489 0-1.256.006-2.006.014v20.934c7.175-1.657 7.37-11.98 7.44-15.612z"></path></g><!----></svg>